<?xml version="1.0" standalone="no"?><!DOCTYPE svg PUBLIC "-//W3C//DTD SVG 1.1//EN" "http://www.w3.org/Graphics/SVG/1.1/DTD/svg11.dtd"><svg t="1633679634486" class="icon" viewBox="0 0 3030 1024" version="1.1" xmlns="http://www.w3.org/2000/svg" p-id="1359" xmlns:xlink="http://www.w3.org/1999/xlink" width="591.796875" height="200"><defs><style type="text/css"></style></defs><path d="M217.342714 961.415075c-4.79196-4.79196-6.367839-45.829146-6.36784-165.097487v-158.713568l12.623116-12.639196c11.561809-11.545729 16.627136-12.623116 59.175879-12.623115h46.552764v-51.457287H273.366834c-66.39598 0-71.670352-3.055276-61.877387-35.698492 12.285427-41.005025 53.676382-76.623116 98.540704-84.759799 17.527638-3.18392 19.296482-5.017085 19.376884-20.00402 0.128643-28.590955 3.055276-29.861307 64.643216-28.237186L450.251256 393.648241l2.572865 20.582915 2.572864 20.582914 49.109548 2.572865c54.78593 2.862312 71.220101 9.98593 85.113568 36.872361 14.375879 27.770854 3.18392 61.234171-26.098493 78.102513-5.692462 3.264322-32.353769 7.107538-59.240201 8.522613l-48.884422 2.572864v46.311558l58.323618 2.572865c50.01005 2.203015 59.352764 3.98794 65.60804 12.558794 5.901508 8.088442 7.284422 39.461307 7.284422 165.145728 0 151.18794-0.273367 155.417085-10.82211 164.984925-10.130653 9.149749-22.046231 9.889447-181.451257 11.272362-130.363819 1.125628-172.124623-0.032161-176.996984-4.888443z m244.695477-121.889447c4.824121-3.055276 6.223116-17.366834 5.145729-52.663316l-1.495478-48.450252-61.025125-1.447236c-40.586935-0.964824-63.405025 0.530653-68.180905 4.486432-4.984925 4.148744-7.155779 18.074372-7.155779 46.102513 0 54.994975 1.720603 56.361809 71.123618 56.281407 30.231156-0.048241 57.937688-1.99397 61.58794-4.309548z m1161.005025 120.892462c-1.99397-5.19397 1.704523-15.115578 9.407035-25.246231 42.40402-55.670352 50.942714-93.973869 53.933669-241.784924l2.492462-122.211056h-81.849246c-56.779899 0-83.730653-1.897487-88.008041-6.174874-3.859296-3.859296-6.174874-23.027136-6.174874-51.167839 0-40.120603 1.350754-46.568844 12.39799-59.433166 12.285427-14.311558 13.089447-14.472362 86.190955-17.013065l73.792965-2.572865 2.621105-30.874372c2.299497-27.111558 6.126633-35.907538 31.324623-72.040201 43.159799-61.861307 67.698492-104.972864 64.498493-113.286432-2.363819-6.158794-24.104523-7.686432-125.266332-8.844221l-122.40402-1.366834-1.479397-47.790955c-1.447236-46.954774-1.222111-48.080402 13.748744-63.035176l15.244221-15.244221h214.094472c173.20201 0 214.609045 1.302513 216.731658 6.834171 7.364824 19.167839-67.21608 179.087437-121.085427 259.60201-26.982915 40.329648-31.469347 50.283417-30.102512 66.733669l1.59196 19.312562 66.042211 2.572865 66.058291 2.572864 14.713568 16.498492c19.98794 22.38392 24.120603 47.21206 11.947739 71.718593-17.18995 34.572864-30.472362 40.184925-99.955779 42.259297l-61.378895 1.817085V668.944724c0 151.509548-15.951759 262.769849-40.924623 285.362814-6.592965 5.98191-28.253266 8.635176-91.770854 11.256281-74.773869 3.087437-83.457286 2.572864-86.416081-5.145729z m644.132663-0.996984c-7.075377-7.075377-8.201005-26.211055-8.201005-139.047237V689.527638h-64.01608c-37.242211 0-65.350754-2.154774-67.21608-5.145728-1.752764-2.846231 21.933668-35.859296 52.631155-73.326634 71.477387-87.316583 109.475377-135.750754 109.475377-139.529648 0-1.640201-33.913568-3.634171-75.352764-4.40603-63.678392-1.20603-76.172864-2.749749-80.723618-9.98593-6.866332-10.886432 7.364824-44.253266 26.757789-62.842211 25.535678-24.442211 45.443216-28.944724 128.257287-28.944723 73.262312 0 76.912563-0.482412 87.638191-11.899498 21.788945-23.20402 18.203015-24.120603-94.456282-24.120603-116.80804 0-116.40603 0.128643-105.712563-32.273367 6.673367-20.245226 37.949749-52.261307 58.613066-60.044221 8.361809-3.151759 57.19799-5.483417 115.778894-5.531658 55.702513-0.048241 103.831156-1.768844 106.950754-3.859297 5.869347-3.923618 17.495477-23.654271 17.495477-29.716582 0-1.913568-63.099497-2.637186-140.221105-1.624121l-140.221106 1.833166 1.366835-18.01005c1.897487-24.699497 25.358794-56.603015 52.904522-71.911558l22.914573-12.735679 272.723618-8.81206c149.99799-4.840201 296.635176-8.940704 325.869347-9.133668 52.052261-0.321608 53.435176-0.01608 68.180904 14.713568 25.085427 25.085427 18.283417 65.543719-13.780904 81.897487-5.949749 3.039196-56.876382 6.866332-113.20603 8.522613-150.625126 4.438191-153.728643 4.920603-165.98191 25.664322-5.59598 9.487437-8.828141 18.605025-7.171859 20.261306 1.656281 1.640201 72.265327 2.990955 156.912563 2.990955h153.905527l15.051257 15.035176c16.723618 16.723618 19.119598 34.186935 7.702512 56.265326-13.234171 25.567839-20.534673 26.468342-216.39397 26.468342h-182.078392l-10.500502 14.729648c-5.772864 8.104523-9.005025 16.209045-7.20402 18.010051 1.801005 1.801005 97.929648 3.280402 213.644221 3.280402 228.180905 0 232.265327 0.482412 244.888442 28.156784 9.792965 21.483417 7.236181 37.338693-8.876382 55.380904l-15.003015 16.80402-256.434171 1.318593c-253.620101 1.286432-256.514573 1.431156-265.423115 12.140704-4.952764 5.949749-9.005025 12.832161-9.005026 15.276382 0 2.41206 110.198995 5.065327 244.872362 5.853266l244.888442 1.431156 9.825126 12.140703c9.326633 11.513568 9.841206 23.043216 9.841206 219.417086 0 196.38995-0.514573 207.903518-9.841206 219.417085l-9.825126 12.140704-337.029145 1.398995c-302.601005 1.254271-337.849246 0.546734-345.214071-6.80201z m505.342714-106.259297c10.01809-10.01809 7.20402-24.249246-5.403015-27.336683-6.367839-1.543719-83.103518-2.170854-170.532663-1.382915-146.926633 1.334673-159.388945 2.154774-164.663317 10.757789-4.566834 7.445226-3.714573 10.773869 4.277387 16.723618 13.394975 9.937688 326.464322 11.095477 336.321608 1.238191z m-1.961809-113.801005c5.081407-3.730653 8.39397-11.256281 7.332663-16.723618-1.849246-9.6-7.927638-9.953769-171.095477-9.953769-157.668342 0-169.551759 0.643216-174.874372 9.310553-4.566834 7.445226-3.714573 10.773869 4.277387 16.723618 14.054271 10.420101 320.160804 11.015075 334.359799 0.643216z m0-108.060301c5.081407-3.730653 8.39397-11.256281 7.332663-16.723619-1.849246-9.6-7.927638-9.953769-171.095477-9.953768-157.668342 0-169.551759 0.643216-174.874372 9.310552-4.566834 7.445226-3.714573 10.773869 4.277387 16.723618 14.054271 10.420101 320.160804 11.015075 334.359799 0.643217zM22.705528 955.224121c-1.479397-3.859296 2.058291-32.241206 7.863316-63.035176 19.891457-105.503518 21.708543-140.767839 24.458292-471.798995l2.733668-328.281407 11.449246-7.509548c9.728643-6.367839 48.964824-7.316583 258.010051-6.174874l246.528643 1.334673 1.415075 138.934673c1.398995 136.522613 1.238191 139.095477-9.567839 147.939699-10.01809 8.201005-27.288442 9.005025-193.093467 9.005025H190.39196l-0.160804 129.929648C189.925628 723.61809 178.428141 885.499497 158.970854 945.527638l-5.419095 16.723618H89.487437c-49.431156 0-64.691457-1.60804-66.781909-7.027135zM441.407035 254.424121c13.057286-9.165829 14.79397-26.580905 4.132663-41.16583-6.850251-9.374874-14.39196-10.00201-120.136683-10.00201-88.072362 0-114.701508 1.543719-121.342713 7.075377-11.513568 9.535678-11.19196 39.734673 0.498492 46.536684 5.306533 3.103518 53.322613 5.306533 117.21005 5.403015 89.776884 0.128643 110.150754-1.20603 119.638191-7.847236zM715.256281 954.162814c0-4.582915 4.775879-15.035176 10.596985-23.2201 18.572864-26.066332 46.472362-91.931658 53.99799-127.356784 5.837186-27.545729 7.284422-101.370854 7.348744-374.512563 0.112563-405.451256-7.139698-367.324623 69.949749-367.324623 77.877387 0 70.046231-46.054271 67.698492 397.813065-2.122613 402.042211-2.315578 405.258291-28.735678 476.41407l-8.7799 23.702513-86.03015 1.415075c-76.462312 1.254271-86.046231 0.482412-86.046232-6.914573z m362.613066 2.685427c-1.833166-2.958794-0.225126-9.648241 3.553769-14.82613 78.761809-107.722613 138.130653-199.557789 138.098492-213.644222 0-2.974874-21.097487-38.978894-46.890452-80.01608a101673.792965 101673.792965 0 0 1-61.957789-98.685427l-15.067337-24.088442 17.688442-91.690453c9.744724-50.444221 19.296482-101.419095 21.226131-113.286432l3.489447-21.59598-27.417085-1.559799-27.417086-1.575879-1.527638-31.951759c-2.251256-46.874372 17.447236-76.655276 57.294473-86.657286 18.492462-4.631156 22.448241-13.362814 26.80603-59.079397 5.628141-59.047236 1.913568-56.442211 80.434171-56.442211h67.457286l-4.0201 42.452261c-2.203015 23.348744-4.277387 48.241206-4.598995 55.316583l-0.578895 12.864322 90.838191 1.398995c77.636181 1.20603 91.288442 2.605025 93.973869 9.648241 3.971859 10.307538-5.226131 126.745729-15.324623 194.219095-14.536683 97.029146-48 226.41206-77.105527 298.034171-6.946734 17.077387-12.623116 34.974874-12.623116 39.782915 0 4.79196 21.081407 45.507538 46.858291 90.436181 55.702513 97.18995 76.639196 137.776884 76.639196 148.615075 0 6.946734-10.323618 7.815075-78.472361 6.592965L1350.753769 959.678392l-21.467337-41.165829c-11.803015-22.641206-23.686432-41.165829-26.38794-41.165829-2.717588 0-19.087437 19.103518-36.40603 42.452261l-31.469346 42.452261H1158.110553c-48.112563 0-78.150754-2.026131-80.241206-5.403015zM1280.450251 528.723618c23.718593-80.78794 49.945729-216.442211 43.770855-226.41206-1.302513-2.122613-17.286432-3.859296-35.521609-3.859297-18.219095 0-33.141709 1.736683-33.141708 3.859297s-6.914573 42.066332-15.356784 88.763819c-8.442211 46.697487-15.388945 91.545729-15.437186 99.666332-0.080402 14.472362 32.80402 75.288442 40.715578 75.288442 2.203015 0 8.940704-16.78794 14.954774-37.306533zM670.938693 777.101508c-5.965829-2.41206-15.807035-10.677387-21.869346-18.36382-10.950754-13.941709-10.998995-15.228141-10.998995-318.681407 0-356.727638-6.560804-323.055276 62.39196-320.643216l43.095477 1.511558 1.334673 307.634171c1.447236 338.026131 2.186935 329.423116-29.475377 345.792965-16.707538 8.635176-28.172864 9.342714-44.478392 2.749749z" fill="#FEC6B9" p-id="1360"></path><path d="M217.342714 961.415075c-4.759799-4.759799-6.271357-40.345729-5.99799-140.41407 0.40201-139.143719 3.698492-183.895477 14.391959-194.637186 3.698492-3.698492 26.950754-7.364824 56.233166-8.876382l49.929648-2.572864 1.543719-29.58794 1.543719-29.58794H279.155779c-62.118593 0-69.515578-3.119598-62.826131-26.43618 12.188945-42.500503 44.928643-71.975879 90.854272-81.784925 26.645226-5.692462 26.741709-5.788945 28.301507-27.224121l1.559799-21.499497h108.060302l2.572864 20.582914 2.572864 20.582915 51.457287 2.894472c56.860302 3.21608 70.432161 8.79598 82.331658 33.849247 9.696482 20.454271 9.696482 29.427136-0.048241 48.257286-11.59397 22.432161-25.632161 27.658291-82.283417 30.633166l-51.457287 2.717588v56.603015l48.884422 1.286432c57.037186 1.495477 68.454271 3.569849 79.405026 14.520603 6.978894 6.978894 8.072362 28.944724 8.072361 161.286432 0 149.19397-0.289447 153.471357-10.82211 163.007035-10.114573 9.165829-22.046231 9.905528-181.451257 11.288443-130.363819 1.125628-172.124623-0.032161-176.996984-4.888443z m244.695477-121.889447c4.824121-3.055276 6.223116-17.366834 5.145729-52.663316l-1.495478-48.450252-61.025125-1.447236c-40.586935-0.964824-63.405025 0.530653-68.180905 4.486432-4.984925 4.148744-7.155779 18.074372-7.155779 46.102513 0 54.994975 1.720603 56.361809 71.123618 56.281407 30.231156-0.048241 57.937688-1.99397 61.58794-4.309548z m1161.005025 120.892462c-1.99397-5.19397 1.704523-15.115578 9.407035-25.246231 42.40402-55.670352 50.942714-93.973869 53.933669-241.784924l2.492462-122.211056h-79.324623c-55.702513 0-81.704523-1.929648-87.396985-6.43216-6.641206-5.274372-7.622111-14.488442-5.483417-51.392965 2.186935-37.821106 4.502513-47.035176 14.584924-57.889447 11.59397-12.526633 14.054271-12.928643 78.697488-12.928644 36.695477 0 70.367839-1.398995 74.854271-3.119598 6.01407-2.315578 8.136683-10.291457 8.136684-30.552763 0-25.19799 2.653266-31.356784 32.482412-75.352764 41.374874-61.041206 72.651256-116.888442 68.0201-121.519598-1.961809-1.961809-59.529648-4.743719-127.935678-6.158794l-124.365829-2.572865-1.479397-45.057286c-1.398995-42.162814-0.675377-45.877387 11.336683-57.889447l12.832161-12.832161h211.2c201.809045 0 211.21608 0.41809 211.21608 9.487437 0 31.646231-63.308543 166.432161-115.183919 245.226131-27.899497 42.371859-33.897487 55.220101-33.961809 72.779899-0.064322 14.745729 2.428141 22.271357 8.056281 24.442211 4.486432 1.720603 32.482412 3.119598 62.231156 3.119598 63.790955 0 78.617085 6.207035 94.82613 39.686432 8.940704 18.492462 9.712563 24.619095 4.888443 39.236181-12.623116 38.255276-39.075377 49.720603-114.733669 49.720603h-50.203015v97.222111c0 152.056281-15.919598 263.284422-40.924623 285.909548-6.592965 5.98191-28.253266 8.635176-91.770854 11.256281-74.773869 3.087437-83.457286 2.572864-86.416081-5.145729z m644.132663-0.996984c-7.075377-7.075377-8.201005-26.211055-8.201005-139.047237V689.527638h-64.01608c-37.242211 0-65.350754-2.154774-67.21608-5.145728-1.752764-2.846231 21.933668-35.859296 52.631155-73.326634 82.170854-100.38995 109.475377-135.863317 109.475377-142.231155 0-3.891457-22.464322-5.740704-70.753769-5.788945-38.914573-0.048241-73.969849-2.106533-77.877387-4.598995-8.554774-5.403015-2.090452-28.140704 14.697488-51.714573 21.097487-29.636181 45.652261-36.229146 134.946734-36.229146h80.096482l13.475377-17.672361c7.396985-9.712563 13.475377-20.132663 13.475377-23.155779 0-3.698492-34.862312-5.483417-107.754774-5.483417-62.986935 0-109.025126-2.042211-110.79397-4.920603-3.811055-6.158794 10.162814-40.265327 21.917588-53.499498 4.840201-5.467337 18.074372-14.182915 29.394975-19.376884 17.784925-8.168844 34.733668-9.471357 124.590955-9.56784l104.02412-0.112562 13.041206-19.2c7.18794-10.564824 13.057286-21.338693 13.057287-23.959799 0-2.846231-55.847236-3.296482-141.025126-1.093468-95.951759 2.460302-142.102513 1.913568-144.353769-1.736683-5.628141-9.101508 15.115578-48.369849 34.637186-65.495478 12.494472-10.966834 27.497487-17.99397 45.893467-21.451256 21.499497-4.068342 541.716583-22.078392 622.231156-21.547739 41.262312 0.257286 60.719598 47.662312 31.549749 76.832161-13.700503 13.716583-16.594975 14.311558-85.708543 17.624121-39.348744 1.881407-94.906533 3.457286-123.481407 3.505528-30.890452 0.048241-57.021106 2.653266-64.498492 6.43216-14.520603 7.348744-33.495477 37.001005-28.671357 44.8 2.106533 3.425126 57.551759 5.290452 157.716583 5.290453h154.468342l15.051256 15.035175c9.069347 9.069347 15.035176 20.470352 15.035176 28.703518s-5.965829 19.61809-15.035176 28.703518l-15.051256 15.035176h-375.58995l-10.709548 17.334673c-5.885427 9.535678-10.709548 19.939698-10.709548 23.155779 0 4.245226 58.741709 5.821106 216.37789 5.821105 182.930653 0 218.693467 1.20603 231.396985 7.766834 29.443216 15.228141 33.865327 44.607035 10.613065 70.625126l-15.003015 16.80402-256.434171 1.17387c-254.777889 1.173869-256.482412 1.254271-265.423115 12.156783-4.952764 6.030151-9.005025 12.960804-9.005026 15.388945 0 2.444221 110.198995 5.081407 244.872362 5.869347l244.888442 1.431156 9.825126 12.140703c9.326633 11.513568 9.841206 23.043216 9.841206 219.417086 0 196.38995-0.514573 207.903518-9.841206 219.417085l-9.825126 12.140704-337.029145 1.398995c-302.601005 1.254271-337.849246 0.546734-345.214071-6.80201z m505.342714-106.259297c10.01809-10.01809 7.20402-24.249246-5.403015-27.336683-6.367839-1.543719-83.103518-2.170854-170.532663-1.382915-146.926633 1.334673-159.388945 2.154774-164.663317 10.757789-4.566834 7.445226-3.714573 10.773869 4.277387 16.723618 13.394975 9.937688 326.464322 11.095477 336.321608 1.238191z m-1.961809-113.801005c5.081407-3.730653 8.39397-11.256281 7.332663-16.723618-1.849246-9.6-7.927638-9.953769-171.095477-9.953769-157.668342 0-169.551759 0.643216-174.874372 9.310553-4.566834 7.445226-3.714573 10.773869 4.277387 16.723618 14.054271 10.420101 320.160804 11.015075 334.359799 0.643216z m0-108.060301c5.081407-3.730653 8.39397-11.256281 7.332663-16.723619-1.849246-9.6-7.927638-9.953769-171.095477-9.953768-157.668342 0-169.551759 0.643216-174.874372 9.310552-4.566834 7.445226-3.714573 10.773869 4.277387 16.723618 14.054271 10.420101 320.160804 11.015075 334.359799 0.643217zM22.673367 955.159799c-1.495477-3.891457 2.074372-31.919598 7.927638-62.295477 23.670352-122.629146 27.915578-194.331658 29.748744-501.563819 1.527638-259.248241 2.605025-291.505528 10.066331-299.738694 7.798995-8.635176 24.345729-9.230151 254.552764-9.230151h246.190955v136.072362c0 134.769849-0.112563 136.136683-11.433166 144.080402-9.825126 6.882412-36.984925 8.00804-192.964824 8.00804H185.246231v142.79397c-0.01608 272.691457-5.885427 369.302513-26.259296 432.241206l-5.419096 16.723618H89.487437c-49.672362 0-64.691457-1.60804-66.79799-7.075377zM447.678392 257.286432c13.459296-13.459296 13.18593-36.936683-0.546734-49.366834-9.969849-9.037186-19.955779-9.809045-125.877387-9.809045-101.499497 0-116.100503 1.029146-123.819095 8.763819-12.81608 12.8-11.256281 39.702513 2.958794 51.21608 10.596985 8.570854 22.560804 9.487437 124.349749 9.487437 105.776884 0 113.270352-0.627136 122.934673-10.291457z m267.577889 696.763819c0-4.518593 4.775879-14.922613 10.596985-23.107537 18.235176-25.6 46.40804-91.61005 54.351759-127.356784 6.126633-27.545729 8.233166-101.644221 10.693467-375.959799C794.468342 28.140704 787.392965 66.894472 856.763819 66.894472c69.306533 0 62.215075-39.541709 65.672362 365.829146 1.784925 208.562814 0.996985 364.285427-1.961809 390.592965-5.177889 45.98995-16.176884 94.134673-27.899498 122.211055l-6.978894 16.723618h-85.17789c-74.532663 0-85.161809-1.029146-85.161809-8.201005z m362.613066 2.79799c-1.833166-2.958794-0.225126-9.648241 3.553769-14.82613 77.668342-106.211055 138.114573-199.509548 138.114572-213.145729 0-2.701508-17.045226-32.916583-37.853266-67.151759-20.80804-34.251256-47.179899-79.61407-58.596985-100.840201l-20.759799-38.592965 20.084422-105.487437c11.047236-58.01809 19.457286-108.960804 18.669347-113.20603-0.932663-5.21005-9.744724-8.554774-27.079397-10.291457l-25.680402-2.572865v-35.135678c0-34.042211 0.594975-35.666332 19.376884-52.888442 10.661307-9.760804 26.371859-19.151759 34.926634-20.856282 20.020101-4.020101 23.831156-11.899497 28.269346-58.516583 5.59598-58.661307 2.637186-56.442211 75.224121-56.442211h62.231156l-4.180905 37.306533c-2.283417 20.518593-4.325628 45.411055-4.502512 55.316583l-0.36985 18.01005 90.838191 1.398995c69.579899 1.077387 91.433166 3.007035 93.427136 8.217086 7.396985 19.264322-14.745729 206.536683-35.376884 299.127638-6.914573 31.131658-16.032161 72.281407-20.245227 91.449246-4.196985 19.167839-15.758794 56.538693-25.680402 83.039196-9.937688 26.516583-18.058291 51.61809-18.058291 55.798995 0 4.196985 21.081407 44.39799 46.858291 89.342714 55.702513 97.18995 76.639196 137.776884 76.639196 148.615075 0 6.946734-10.323618 7.815075-78.472361 6.592965L1350.753769 959.678392l-21.467337-41.165829c-11.803015-22.641206-23.686432-41.165829-26.38794-41.165829-2.717588 0-19.087437 19.103518-36.40603 42.452261l-31.469346 42.452261H1158.110553c-48.112563 0-78.150754-2.026131-80.241206-5.403015zM1275.175879 559.59799c16.771859-32.900503 50.540704-182.834171 53.5799-237.98995l1.415075-25.728643-37.386934-1.511558c-30.536683-1.238191-37.949749 0-40.554774 6.753769-1.752764 4.566834-10.725628 50.41206-19.939699 101.869347l-16.787939 93.571859 15.485427 28.301508c16.064322 29.362814 28.78392 46.311558 34.79799 46.311557 1.913568 0 6.126633-5.21005 9.374874-11.577889zM670.922613 777.101508c-5.965829-2.41206-15.469347-10.227136-21.081407-17.382915-10.01809-12.719598-10.178894-19.537688-7.798995-315.61005 1.382915-171.867337 4.502513-306.572864 7.236181-311.798995 4.116583-7.927638 10.741709-9.005025 46.954774-7.718593l42.162814 1.479397 3.103517 306.170854c3.376884 334.536683 4.00402 326.544724-26.098492 342.110553-16.707538 8.635176-28.172864 9.342714-44.478392 2.749749z" fill="#FEB3C9" p-id="1361"></path><path d="M1629.459296 958.456281c-1.688442-2.733668 2.894472-12.832161 10.211056-22.448241 41.439196-54.609045 53.274372-112.032161 53.274372-258.572864 0-95.839196-1.061307-110.713568-8.136684-113.431156-4.486432-1.720603-43.851256-3.119598-87.477387-3.119598H1517.98995v-45.555779c0-41.230151 1.20603-46.858291 12.623115-59.175879 12.38191-13.378894 13.796985-13.620101 79.340704-13.620101 36.695477 0 70.367839-1.398995 74.854271-3.119598 6.01407-2.315578 8.136683-10.291457 8.136684-30.552763 0-25.19799 2.653266-31.356784 32.482412-75.352764 41.374874-61.041206 72.651256-116.888442 68.0201-121.519598-1.961809-1.961809-59.529648-4.743719-127.935678-6.158794l-124.365829-2.572865-1.479397-45.057286c-1.398995-42.162814-0.675377-45.877387 11.336683-57.889447l12.832161-12.832161h211.2c201.809045 0 211.21608 0.41809 211.21608 9.487437 0 31.646231-63.308543 166.432161-115.183919 245.226131-27.899497 42.371859-33.897487 55.220101-33.961809 72.779899-0.064322 14.745729 2.428141 22.271357 8.056281 24.442211 4.486432 1.720603 32.916583 3.119598 63.1799 3.119598 56.39397 0 70.271357 4.084422 86.512562 25.487438 17.286432 22.80201 9.567839 61.282412-16.40201 81.704522-12.590955 9.921608-20.550754 11.175879-71.364824 11.240201-31.453266 0.032161-59.738693 1.768844-62.858291 3.859297-3.698492 2.476382-6.850251 48.353769-9.117588 132.42211-1.913568 70.753769-6.689447 146.588945-10.629146 168.506533-8.972864 49.849246-22.239196 85.21005-33.125628 88.281407-18.894472 5.370854-158.954774 9.19799-161.897488 4.42211z m-1600.884422-6.046231c-1.60804-2.588945 0.482412-19.376884 4.631156-37.306532 21.740704-94.070352 24.329648-140.494472 26.998995-482.862312 2.251256-290.460302 3.569849-333.025126 10.580905-340.904523 7.396985-8.345729 26.211055-9.005025 254.198995-9.005025h246.190954v136.072362c0 134.769849-0.112563 136.136683-11.433165 144.080402-9.825126 6.882412-36.984925 8.00804-192.964825 8.00804H185.246231l-0.064321 124.78392c-0.096482 164.888442-7.782915 310.062312-20.582915 388.80804-5.708543 35.18392-11.658291 66.01005-13.18593 68.502513-3.714573 6.01407-119.107538 5.837186-122.838191-0.176885zM447.678392 257.286432c13.459296-13.459296 13.18593-36.936683-0.546734-49.366834-9.969849-9.037186-19.955779-9.809045-125.877387-9.809045-101.499497 0-116.100503 1.029146-123.819095 8.763819-12.81608 12.8-11.256281 39.702513 2.958794 51.21608 10.596985 8.570854 22.560804 9.487437 124.349749 9.487437 105.776884 0 113.270352-0.627136 122.934673-10.291457zM219.545729 953.680402c-1.881407-1.897487-3.425126-73.230151-3.425126-158.552764 0-125.636181 1.382915-156.992965 7.284422-165.081407 6.110553-8.361809 15.549749-10.40402 57.889447-12.558794l50.605025-2.572864 1.543719-29.58794 1.543719-29.58794H279.155779c-62.118593 0-69.515578-3.119598-62.826131-26.43618 12.188945-42.500503 44.928643-71.975879 90.854272-81.784925 26.645226-5.692462 26.741709-5.788945 28.301507-27.224121l1.559799-21.499497h108.060302l2.572864 20.582914 2.572864 20.582915 51.457287 2.894472c56.860302 3.21608 70.432161 8.79598 82.331658 33.849247 9.696482 20.454271 9.696482 29.427136-0.048241 48.257286-11.59397 22.432161-25.632161 27.658291-82.283417 30.633166l-51.457287 2.717588v56.603015l57.133669 2.572864c37.531658 1.688442 60.028141 4.984925 65.60804 9.648241 7.525628 6.271357 8.474372 24.265327 8.474372 160.418091 0 132.582915-1.093467 154.468342-8.088443 161.463316-7.027136 7.027136-30.504523 8.088442-179.248241 8.088443-94.134673 0-172.703518-1.543719-174.584924-3.425126z m248.281407-111.823116c3.875377-4.679397 5.451256-24.924623 4.486432-57.889447L470.834171 733.266332l-66.170854-1.447237c-44.41407-0.964824-68.534673 0.514573-73.326634 4.502513-9.326633 7.718593-10.130653 97.382915-0.980904 106.548744 9.374874 9.374874 129.575879 8.490452 137.471357-1.013066z m256.643216 112.450252c-1.543719-1.543719 6.962814-19.939698 18.910553-40.908543 11.947739-20.968844 27.288442-53.869347 34.090452-73.101508l12.39799-34.990954 2.572864-361.905528c2.990955-419.955779-4.550754-376.506533 65.302513-376.506533 71.139698 0 64.353769-42.709548 61.989949 390.110553-1.929648 349.105528-2.605025 371.360804-12.574874 415.19598-5.788945 25.471357-14.166834 54.994975-18.621106 65.60804l-8.088442 19.296483H803.859296c-42.130653 0-77.861307-1.254271-79.388944-2.79799z m361.278392-1.897488c0-2.572864 18.765829-30.922613 41.712563-62.970854 48.01608-67.055276 97.222111-148.631156 97.22211-161.157789 0-4.711558-20.020101-40.249246-44.510553-78.970854-73.6-116.470352-79.115578-126.166834-76.623115-134.480402 7.364824-24.345729 39.011055-208.434171 36.82412-214.142714-1.543719-3.971859-12.864322-7.445226-27.336683-8.361809l-24.715578-1.59196v-35.135678c0-34.042211 0.594975-35.666332 19.376884-52.888442 10.661307-9.760804 26.371859-19.151759 34.926634-20.856282 20.020101-4.020101 23.831156-11.899497 28.269346-58.516583 5.59598-58.661307 2.637186-56.442211 75.224121-56.442211h62.231156l-4.180905 37.306533c-2.283417 20.518593-4.325628 45.411055-4.502512 55.316583l-0.36985 18.01005 90.838191 1.398995c69.579899 1.077387 91.433166 3.007035 93.427136 8.217086 3.537688 9.165829-4.984925 116.052261-14.79397 185.921608-13.153769 93.796985-44.590955 213.99799-80 305.929648l-14.79397 38.432161 39.702513 69.676382c64.546734 113.254271 89.133668 161.511558 84.598995 166.046231-2.347739 2.347739-35.344724 3.61809-73.326633 2.83015l-69.049247-1.447236-23.155778-43.417085c-12.735678-23.879397-25.857286-44.269347-29.153769-45.314573-3.280402-1.029146-13.491457 9.246231-22.673367 22.834171a848.562814 848.562814 0 0 1-34.235176 46.601005l-17.527638 21.869347h-71.718593c-39.750754 0-71.686432-2.090452-71.686432-4.695478z m201.937688-427.899497c17.768844-59.401005 38.721608-162.090452 40.876382-200.329648l1.60804-28.301508-35.505527-1.543719c-19.537688-0.836181-37.499497 0.450251-39.911558 2.862312-2.41206 2.41206-11.417085 44.78392-20.00402 94.166834-8.570854 49.366834-16.659296 93.298492-17.961809 97.60804-3.103518 10.323618 42.80603 88.570854 50.460301 86.030151 3.248241-1.093467 12.446231-23.798995 20.422111-50.492462z m981.5799 304.369849c0-70.512563-1.398995-131.875377-3.119598-136.361809-2.605025-6.78593-13.234171-8.136683-64.016081-8.136683-33.495477 0-62.231156-2.170854-63.887437-4.824121-1.640201-2.669347 3.714573-12.510553 11.899498-21.869347 32.434171-37.049246 149.99799-186.162814 149.99799-190.231156 0-2.39598-34.154774-4.373869-75.899498-4.42211-41.744724-0.048241-79.115578-2.106533-83.023116-4.598995-8.554774-5.403015-2.090452-28.140704 14.697488-51.714573 21.097487-29.636181 45.652261-36.229146 134.946734-36.229146h80.096482l13.475377-17.672361c7.396985-9.712563 13.475377-20.132663 13.475377-23.155779 0-3.698492-34.862312-5.483417-107.754774-5.483417-62.986935 0-109.025126-2.042211-110.79397-4.920603-3.811055-6.158794 10.162814-40.265327 21.917588-53.499498 4.840201-5.467337 18.074372-14.182915 29.394975-19.376884 17.784925-8.168844 34.733668-9.471357 124.590955-9.56784l104.02412-0.112562 13.041206-19.2c7.18794-10.564824 13.057286-21.338693 13.057287-23.959799 0-2.846231-55.847236-3.296482-141.025126-1.093468-95.951759 2.460302-142.102513 1.913568-144.353769-1.736683-5.628141-9.101508 15.115578-48.369849 34.637186-65.495478 12.494472-10.966834 27.497487-17.99397 45.893467-21.451256 21.499497-4.068342 541.716583-22.078392 622.231156-21.547739 41.262312 0.257286 60.719598 47.662312 31.549749 76.832161-13.700503 13.716583-16.594975 14.311558-85.708543 17.624121-39.348744 1.881407-94.906533 3.457286-123.481407 3.505528-30.890452 0.048241-57.021106 2.653266-64.498492 6.43216-14.520603 7.348744-33.495477 37.001005-28.671357 44.8 2.106533 3.425126 57.551759 5.290452 157.716583 5.290453h154.468342l15.051256 15.035175c9.069347 9.069347 15.035176 20.470352 15.035176 28.703518s-5.965829 19.61809-15.035176 28.703518l-15.051256 15.035176h-375.58995l-10.709548 17.334673c-5.885427 9.535678-10.709548 19.939698-10.709548 23.155779 0 4.245226 59.433166 5.821106 219.095478 5.821105h219.079397l15.051256 15.035176c8.265327 8.281407 15.035176 19.746734 15.035176 25.487437 0 16.080402-10.243216 34.926633-22.432161 41.246232-7.525628 3.891457-91.256281 6.110553-264.522613 6.994974l-253.491457 1.286433-12.687437 15.437185c-26.243216 31.951759-35.087437 30.745729 236.735678 32.128644 244.502513 1.238191 247.011055 1.350754 255.935678 12.140703 8.233166 9.969849 9.005025 28.076382 9.005025 212.438191 0 174.086432-1.093467 203.095477-8.00804 212.984925l-8.00804 11.433166H2269.266332z m508.39799 29.427136c7.943719-7.943719 7.943719-26.01809 0-33.961809-8.844221-8.844221-339.007035-8.844221-347.851257 0-9.101508 9.101508-7.509548 28.558794 2.830151 34.572864 13.652261 7.959799 337.045226 7.380905 345.021106-0.611055z m0-113.20603c7.943719-7.943719 7.943719-26.01809 0-33.96181-8.844221-8.844221-339.007035-8.844221-347.851257 0-9.101508 9.101508-7.509548 28.558794 2.830151 34.572865 13.652261 7.959799 337.045226 7.380905 345.021106-0.611055z m-3.778895-107.208041c11.127638-5.949749 13.234171-25.358794 3.778895-34.81407-8.844221-8.844221-339.007035-8.844221-347.851257 0-9.101508 9.101508-7.509548 28.558794 2.830151 34.572864 12.333668 7.18794 327.863317 7.396985 341.242211 0.241206zM670.922613 768.964824c-8.844221-4.422111-18.669347-13.796985-21.869347-20.82412-8.876382-19.457286-8.201005-604.01206 0.707538-616.201006 5.435176-7.445226 13.394975-8.683417 47.59799-7.396984l41.053266 1.511557v619.835176l-12.864321 12.655277c-17.061307 16.80402-35.055276 20.229146-54.625126 10.4201z" fill="#FEA0A1" p-id="1362"></path><path d="M224.900503 953.873367c-5.547739-5.547739-4.213065-312.056281 1.382914-320.948744 3.61809-5.740704 18.444221-8.377889 57.809045-10.291457l52.952764-2.572864V553.165829l-56.538693-1.479397c-31.083417-0.80402-58.548744-3.489447-61.041206-5.981909-2.572864-2.572864 1.045226-16.627136 8.474371-32.884422 15.372864-33.559799 40.81206-52.80804 81.801006-61.861307 26.918593-5.949749 27.336683-6.319598 28.976884-26.468342 0.916583-11.224121 4.38995-22.142714 7.718593-24.265326 7.252261-4.615075 76.41407-5.306533 87.959799-0.884422 5.001005 1.929648 8.168844 9.358794 8.201005 19.296482 0.064322 8.892462 1.801005 18.846231 3.859296 22.094472 2.331658 3.61809 24.39397 6.609045 56.972865 7.718593 52.631156 1.768844 53.322613 1.977889 68.180904 18.605025 16.530653 18.524623 18.81407 35.505528 7.670352 57.069347-10.725628 20.743719-28.574874 26.468342-82.41206 26.468342-53.435176 0-54.335678 0.594975-54.335679 36.0201 0 35.859296 0.289447 36.020101 60.060302 36.020101 29.60402 0 58.307538 2.41206 63.774874 5.322613 9.487437 5.081407 9.953769 12.285427 9.873367 158.231156-0.048241 87.268342-2.170854 156.221106-4.952764 160.627135-4.132663 6.560804-30.359799 7.943719-173.829146 9.19799-92.912563 0.80402-170.564824-0.160804-172.558793-2.138693z m248.619095-109.97387c7.268342-11.529648 6.319598-104.715578-1.141709-112.176884-4.148744-4.148744-27.61005-6.174874-71.750753-6.174874-80.707538 0-81.59196 0.707538-81.59196 65.463316 0 62.440201 2.81407 64.482412 85.515578 62.311558 50.042211-1.334673 65.173869-3.392965 68.984924-9.423116z m1162.822111 106.130654c0-3.907538 3.135678-9.696482 6.962814-12.864322 13.089447-10.870352 39.734673-76.912563 47.372864-117.386935 5.579899-29.523618 7.252261-69.531658 6.239196-148.373869l-1.398995-107.947739-84.904523-2.572864-84.904522-2.572864-1.543719-38.528643c-2.846231-71.364824-0.273367-73.358794 99.312563-77.105528l72.040201-2.717588 2.572864-33.672362c2.138693-27.979899 5.370854-37.21005 19.087437-54.512563 24.249246-30.584925 84.38995-131.376884 82.251257-137.809045-1.222111-3.698492-44.38191-6.432161-127.485427-8.136683l-125.652262-2.572865-1.479397-44.83216c-2.363819-71.236181-21.145729-65.801005 227.58593-65.801005 114.460302 0 209.20603 1.768844 210.540703 3.939698 3.537688 5.708543-27.433166 83.521608-55.798995 140.205025-13.443216 26.854271-40.522613 73.535678-60.156783 103.766834-32.176884 49.479397-35.569849 57.149749-34.138694 77.18593l1.60804 22.239196 65.559799 2.910553c59.786935 2.669347 66.701508 4.00402 78.552764 15.131658 18.621106 17.495477 26.291457 46.070352 17.302513 64.434171-14.40804 29.394975-29.877387 35.409045-98.621106 38.351759l-62.79397 2.669346-3.376884 133.788945c-3.457286 138.259296-10.613065 196.582915-28.655276 233.455277-8.908543 18.235176-10.00201 18.765829-45.153769 21.901507-69.788945 6.239196-120.924623 5.145729-120.924623-2.572864z m638.793969 0.225125c-3.746734-4.502513-6.158794-51.682412-7.075376-137.648241l-1.366835-130.79799-63.035176-1.447236c-34.669347-0.80402-63.035176-2.990955-63.035175-4.904523 0-1.897487 6.753769-10.500503 14.986934-19.135678 28.301508-29.620101 149.676382-185.085427 149.676382-191.710553 0-8.072362-0.723618-8.120603-88.152764-6.753769-47.469347 0.755779-71.300503-0.771859-73.712562-4.663316-7.123618-11.529648 17.913568-51.457286 40.603015-64.771859 20.743719-12.156784 25.825126-12.78392 103.011055-12.78392h81.18995l17.559799-19.18392c30.986935-33.817085 28.751759-34.669347-95.244221-36.229145l-109.829146-1.398995 3.521608-14.038191c5.161809-20.743719 25.407035-44.896482 45.636181-54.496483 14.713568-6.978894 36.180905-8.442211 123.754774-8.442211h105.969849l15.59799-21.515578c8.554774-11.835176 14.729648-23.99196 13.700502-27.015075-1.286432-3.778894-46.472362-4.920603-144.900502-3.61809l-143.035176 1.881407 3.682412-14.745729c8.635176-34.621106 45.539698-66.428141 82.476382-71.107538 23.348744-2.942714 520.956784-18.363819 590.633166-18.299497 38.126633 0.048241 46.601005 1.624121 55.316583 10.339698 13.137688 13.137688 13.443216 41.294472 0.611055 57.133669-11.368844 14.038191-47.855276 18.733668-157.555779 20.245226-36.79196 0.514573-80.369849 2.41206-96.852261 4.229145-29.298492 3.21608-30.279397 3.859296-43.738694 27.851257-11.851256 21.113568-12.703518 25.246231-6.062311 29.507537 4.502513 2.894472 72.426131 4.984925 163.007035 5.033166l155.288442 0.080402 10.661307 13.555779c14.150754 17.99397 13.459296 35.569849-1.961809 51.007035l-12.639196 12.623116h-375.959799l-13.539699 20.454271c-24.924623 37.676382-33.897487 36.148744 211.569849 36.148744h219.095478l12.639196 12.623116c21.772864 21.788945 14.40804 53.129648-15.147739 64.353768-9.021106 3.441206-103.252261 5.354774-263.107538 5.354774h-249.053266l-13.041206 19.2c-7.18794 10.564824-13.057286 22.142714-13.057286 25.728643 0 5.177889 50.267337 6.544724 243.135678 6.592965 185.680402 0.064322 246.174874 1.624121 256 6.592965l12.864322 6.512563V943.919598l-12.864322 6.512563c-19.360804 9.792965-660.100503 9.61608-668.221106-0.192965z m502.416081-88.635175c13.539698-9.487437 14.777889-26.082412 2.910553-39.18794-7.911558-8.747739-20.261307-9.407035-175.823116-9.407035-148.470352 0-168.39397 0.964824-176.723618 8.522613-12.269347 11.095477-11.947739 24.972864 0.868342 37.788944 9.857286 9.857286 17.157789 10.291457 173.813065 10.291458 139.658291 0 165.177889-1.173869 174.954774-8.00804z m0-113.206031c13.346734-9.342714 14.954774-28.896482 3.344723-40.522613-7.011055-7.011055-30.198995-8.072362-175.839196-8.072362-148.872362 0-168.79598 0.964824-177.157789 8.522614-12.253266 11.095477-11.931658 24.972864 0.884423 37.788944 9.857286 9.857286 17.157789 10.291457 173.813065 10.291458 139.658291 0 165.177889-1.173869 174.954774-8.008041z m0-108.060301c13.346734-9.342714 14.954774-28.896482 3.344723-40.522613-7.011055-7.011055-30.198995-8.072362-175.839196-8.072362-148.872362 0-168.79598 0.964824-177.157789 8.522613-12.253266 11.095477-11.931658 24.972864 0.884423 37.788945 9.857286 9.857286 17.157789 10.291457 173.813065 10.291457 139.658291 0 165.177889-1.173869 174.954774-8.00804zM33.18995 935.236181c10.677387-49.575879 23.557789-139.899497 26.532663-185.760804 1.833166-28.719598 3.634171-185.6 3.971859-348.590955 0.514573-243.778894 1.881407-297.889447 7.718593-304.932663 6.480402-7.815075 28.832161-8.458291 252.140704-7.236181L568.603015 90.050251l1.254271 123.497488c0.948744 91.979899-0.40201 126.777889-5.290452 136.361809l-6.560804 12.864321-187.658291 2.572865-187.674372 2.572864-3.553769 198.110553c-3.376884 188.8-10.548744 291.778894-24.988945 359.075377l-5.756784 26.854271H29.58794z m408.972864-670.038191c23.638191-12.221106 27.626131-34.042211 10.291457-56.104523l-10.661306-13.555779h-117.98191c-111.115578 0-118.576884 0.594975-128.273367 10.291458-15.324623 15.324623-13.716583 42.870352 3.264322 56.233166 12.735678 10.01809 20.100503 10.661307 121.18191 10.661306 84.38995 0 110.761809-1.624121 122.178894-7.525628zM730.693467 949.113568c0-1.720603 11.642211-26.661307 25.857287-55.445226 41.487437-83.971859 40.844221-76.655276 40.940703-464.916583 0.080402-302.633166 0.996985-341.435176 8.184925-348.623116 10.130653-10.130653 94.327638-11.674372 104.088442-1.913568 4.679397 4.679397 6.142714 90.162814 6.078392 353.768845-0.112563 365.507538-2.653266 416.482412-24.249246 486.528643l-9.503518 30.874372-75.706532 1.431155c-41.632161 0.771859-75.690452 0-75.690453-1.704522z m360.201005-0.273367c0-1.720603 16.466332-25.455276 36.582915-52.743719 39.364824-53.386935 102.351759-156.172864 102.351759-167.011055 0-6.609045-54.239196-97.575879-99.714573-167.236181l-23.879397-36.598995 20.984925-111.356784c11.529648-61.234171 19.730653-114.588945 18.219095-118.544723-1.849246-4.824121-11.19196-7.18794-28.349749-7.18794-14.070352 0-27.079397-2.41206-28.912563-5.386935-1.833166-2.958794-1.720603-17.045226 0.241206-31.308542 4.438191-32.257286 26.194975-59.256281 51.56985-64.032161 9.58392-1.784925 20.100503-6.480402 23.380904-10.420101 3.264322-3.939698 8.570854-28.590955 11.786935-54.785929l5.853266-47.614071 60.430151-1.447236 60.430151-1.447236v12.81608c0 7.043216-2.637186 30.520603-5.853267 52.164824-4.856281 32.643216-4.631156 40.120603 1.286433 43.867337 3.923618 2.492462 47.276382 4.550754 96.369849 4.598995l89.21407 0.080402-3.376884 45.025126c-5.676382 74.998995-17.479397 166.866332-28.044221 217.953769-12.41407 60.140704-47.115578 181.451256-64.482412 225.559799-7.20402 18.219095-13.073367 37.628141-13.073367 43.111557 0 5.499497 18.170854 41.519598 40.361809 80.080402 48.980905 85.065327 83.135678 147.409045 83.135678 151.750754 0 1.768844-31.083417 3.232161-69.065326 3.232161h-69.049247l-24.860301-44.639196c-13.668342-24.554774-27.465327-45.507538-30.665327-46.536683-3.2-1.045226-16.884422 13.829146-30.39196 33.061306-43.770854 62.327638-35.505528 58.114573-113.913567 58.114573-37.708543 0-68.566834-1.398995-68.566835-3.119598zM1285.917588 546.733668c33.881407-115.344724 56.490452-241.704523 45.250251-252.944723-7.911558-7.911558-73.005025-7.236181-79.678392 0.80402-5.177889 6.255276-37.097487 177.382915-37.097487 198.914573 0 5.933668 9.712563 28.140704 21.579899 49.366834 27.979899 50.01005 36.180905 50.653266 49.945729 3.859296zM670.826131 765.845226c-23.525628-11.401005-23.622111-12.574874-24.345729-327.654271-0.546734-238.79397 0.643216-300.028141 5.99799-305.398995 4.261307-4.293467 20.100503-6.721608 43.738693-6.721608H733.266332l1.334673 307.811055 1.318593 307.811055-15.083417 15.083417c-15.59799 15.59799-30.81005 18.363819-50.01005 9.069347z" fill="#FE6591" p-id="1363"></path><path d="M67.827136 687.179899c-1.929648-2.958794-4.132663-132.727638-4.904523-288.385929-1.125628-224.594975-0.01608-285.668342 5.306533-295.879397l6.689447-12.864322H568.603015l1.254271 123.497488c0.948744 91.979899-0.40201 126.777889-5.290452 136.361809l-6.560804 12.864321-187.658291 2.572865-187.674372 2.572864-2.572864 152.844221c-1.543719 91.706533-4.631156 154.773869-7.718593 157.700503-7.927638 7.509548-100.309548 15.21206-104.554774 8.715577z m374.351758-421.981909c23.622111-12.221106 27.61005-34.042211 10.275377-56.104523l-10.661306-13.555779h-117.98191c-111.115578 0-118.576884 0.594975-128.273367 10.291458-15.324623 15.324623-13.716583 42.870352 3.264322 56.233166 12.735678 10.01809 20.100503 10.661307 121.18191 10.661306 84.38995 0 110.761809-1.624121 122.178894-7.525628zM224 670.118593c-4.213065-10.966834-3.135678-28.623116 2.267337-37.19397 3.61809-5.740704 18.444221-8.377889 57.809045-10.291457l52.952764-2.572864V553.165829l-56.538694-1.479397c-31.083417-0.80402-58.548744-3.489447-61.041206-5.981909-2.572864-2.572864 1.045226-16.627136 8.474372-32.884422 15.372864-33.559799 40.81206-52.80804 81.801005-61.861307 26.918593-5.949749 27.336683-6.319598 28.976885-26.468342 0.916583-11.224121 4.38995-22.142714 7.718593-24.265326 7.252261-4.615075 76.41407-5.306533 87.959798-0.884422 5.001005 1.929648 8.168844 9.358794 8.201006 19.296482 0.064322 8.892462 1.801005 18.846231 3.859296 22.094472 2.331658 3.61809 24.39397 6.609045 56.972864 7.718593 52.631156 1.768844 53.322613 1.977889 68.180905 18.605025 16.530653 18.524623 18.81407 35.505528 7.670352 57.069347-10.725628 20.743719-28.574874 26.468342-82.412061 26.468342-53.435176 0-54.335678 0.594975-54.335678 36.0201 0 35.794975 0.369849 36.020101 59.304523 36.020101 29.18593 0 56.715578 1.398995 61.20201 3.119598 11.015075 4.229146 10.355779 17.431156-0.868342 17.60804-4.952764 0.096482-82.444221 7.750754-172.205025 17.045226-136.715578 14.150754-163.650251 15.726633-165.949749 9.712563z m425.664322-45.668342c-2.138693-5.242211-3.891457-116.518593-3.891458-247.268341 0-188.076382 1.398995-239.115578 6.689448-244.422111 4.245226-4.245226 20.164824-6.689447 43.738693-6.689447H733.266332l1.238191 244.42211c0.675377 134.432161-0.482412 247.043216-2.572865 250.243216-2.090452 3.2-20.582915 7.477387-41.085427 9.519598-33.431156 3.328643-37.660302 2.733668-41.165829-5.821105z m151.155779-14.79397c-1.784925-4.663317-3.248241-123.867337-3.248242-264.940703 0-226.331658 0.964824-257.447236 8.088443-264.586935 10.822111-10.822111 95.726633-11.690452 104.522613-1.077387 4.213065 5.065327 5.467337 79.019095 4.502512 265.921608L913.366834 603.883417l-12.928643 3.457287c-7.123618 1.897487-31.710553 5.097487-54.657286 7.091457-36.052261 3.151759-42.162814 2.492462-44.960804-4.79196z m323.939698-56.184924l-18.588945-27.9799 21.001005-111.485427c11.561809-61.298492 19.778894-114.701508 18.251257-118.657286-1.849246-4.824121-11.19196-7.18794-28.349749-7.18794-14.070352 0-27.079397-2.41206-28.912563-5.386935-1.833166-2.958794-1.720603-17.045226 0.241206-31.308542 4.438191-32.257286 26.194975-59.256281 51.569849-64.032161 9.58392-1.784925 20.100503-6.480402 23.380905-10.420101 3.264322-3.939698 8.570854-28.590955 11.786934-54.785929l5.853267-47.614071 60.430151-1.447236 60.43015-1.447236v12.81608c0 7.043216-2.637186 30.520603-5.853266 52.164824-4.856281 32.643216-4.631156 40.120603 1.286432 43.867337 3.923618 2.492462 47.276382 4.550754 96.369849 4.598995l89.214071 0.080402-3.376885 45.025126c-9.19799 121.792965-32.40201 262.367839-50.42814 305.527638-8.715578 20.824121-12.703518 22.158794-83.473367 27.770854-22.641206 1.801005-45.21809 4.40603-50.170854 5.788945-12.928643 3.60201-11.738693-11.786935 6.174874-81.045226 25.455276-98.315578 38.673367-185.407035 29.555779-194.524623-8.040201-8.040201-73.005025-7.236181-79.823116 0.964824-3.023116 3.634171-13.089447 51.119598-22.4 105.503517l-16.916583 98.894473 16.627136 30.231156c23.99196 43.658291 23.445226 44.864322-22.753769 48.755778-63.405025 5.354774-60.639196 6.190955-81.125628-24.667336z m401.945729-11.288442c-4.438191-4.438191-4.759799-64.868342-0.40201-76.221106 6.142714-16.032161 25.117588-20.582915 97.157789-23.284422l72.040201-2.717588 2.572864-33.672362c2.138693-27.979899 5.370854-37.21005 19.087437-54.512563 24.249246-30.584925 84.38995-131.376884 82.251256-137.809045-1.222111-3.698492-44.38191-6.432161-127.485427-8.136683l-125.652261-2.572865-1.479397-44.83216c-2.363819-71.236181-21.145729-65.801005 227.58593-65.801005 114.460302 0 209.20603 1.768844 210.540703 3.939698 3.537688 5.708543-27.433166 83.521608-55.798995 140.205025-13.443216 26.854271-40.522613 73.535678-60.156784 103.766834-32.176884 49.479397-35.569849 57.149749-34.138693 77.18593l1.60804 22.239196 66.363819 2.942714 66.363819 2.958794 14.681407 16.41809c15.98392 17.897487 19.457286 36.856281 6.753769 36.856281-9.712563 0-408.361809 39.959799-437.451256 43.851257-11.465327 1.527638-22.464322 1.173869-24.442211-0.80402z m776.619095-82.733669c-2.01005-2.01005-38.046231-3.007035-80.080402-2.203015-51.457286 0.980905-77.571859-0.38593-79.919598-4.180904-7.059296-11.417085 18.122613-51.409045 40.683417-64.643216 20.743719-12.156784 25.825126-12.78392 103.011055-12.78392h81.18995l17.559799-19.18392c30.986935-33.817085 28.751759-34.669347-95.244221-36.229145l-109.829146-1.398995 3.521608-14.038191c5.161809-20.743719 25.407035-44.896482 45.636181-54.496483 14.713568-6.978894 36.180905-8.442211 123.754774-8.442211h105.969849l15.59799-21.515578c8.554774-11.835176 14.729648-23.99196 13.700503-27.015075-1.286432-3.778894-46.472362-4.920603-144.900503-3.61809l-143.035175 1.881407 3.682412-14.745729c8.635176-34.621106 45.539698-66.428141 82.476381-71.107538 23.348744-2.942714 520.956784-18.363819 590.633166-18.299497 38.126633 0.048241 46.601005 1.624121 55.316583 10.339698 13.137688 13.137688 13.443216 41.294472 0.611056 57.133669-11.368844 14.038191-47.855276 18.733668-157.555779 20.245226-36.79196 0.514573-80.369849 2.41206-96.852262 4.229145-29.298492 3.21608-30.279397 3.859296-43.738693 27.851257-11.851256 21.113568-12.703518 25.246231-6.062312 29.507537 4.502513 2.894472 72.426131 4.984925 163.007035 5.033166l155.288443 0.080402 10.661306 13.555779c14.150754 17.99397 13.459296 35.569849-1.961809 51.007035l-12.639196 12.623116h-375.959799l-13.539698 20.454271c-24.924623 37.676382-33.801005 36.148744 210.717588 36.148744 189.234171 0 219.079397 1.045226 224.723618 7.847236 3.58593 4.309548 5.258291 9.101508 3.730653 10.629146-2.990955 2.990955-644.052261 68.920603-670.633166 68.984924-8.715578 0-17.511558-1.624121-19.521608-3.650251z" fill="#FE876C" p-id="1364"></path><path d="M70.432161 689.801005c-0.530653-1.559799 0.192965-135.99196 1.60804-298.725628l2.572864-295.879397 243.135679-1.334673 243.135678-1.334674v130.717588c0 114.444221-1.013065 131.103518-8.136683 133.837186-4.486432 1.720603-90.01809 3.119598-190.086432 3.119598-100.084422 0-183.20402 2.026131-184.731659 4.502513-1.543719 2.476382-2.942714 74.371859-3.135678 159.774874-0.241206 116.068342-1.897487 155.786935-6.512563 157.346734-11.61005 3.875377-96.868342 10.838191-97.849246 7.975879z m382.79397-426.966834c24.667337-24.683417 18.476382-56.940704-13.507538-70.303518-22.142714-9.246231-207.98392-10.40402-233.680402-1.447236-23.895477 8.345729-34.090452 33.575879-23.670352 58.564824 4.164824 9.953769 12.880402 20.229146 19.376885 22.834171 6.496482 2.605025 62.343719 4.888442 124.124623 5.065327l112.305527 0.321608zM224.546734 671.501508c-3.409045-8.860302 2.251256-32.498492 9.165829-38.223116 3.376884-2.79799 29.169849-5.772864 57.310553-6.592965l51.167839-1.479397v-77.185929l-54.030151-1.366835c-69.837186-1.768844-69.033166-1.415075-59.288442-25.535678 12.671357-31.324623 44.076382-56.056281 81.366834-64.064322l31.951759-6.866331 1.575879-21.837186 1.59196-21.837186H437.386935v15.019095c0 29.941709 2.251256 31.292462 52.180904 31.292463 66.476382 0 91.899497 13.346734 91.899498 48.257286 0 7.107538-5.579899 19.409045-12.414071 27.352764-11.947739 13.909548-14.440201 14.504523-68.180904 16.241206-34.621106 1.093467-57.19799 4.020101-59.545729 7.718593-2.090452 3.248241-3.811055 19.135678-3.859296 35.328643-0.096482 37.853266 5.99799 41.407035 68.663316 39.911558 62.231156-1.479397 65.045226-1.125628 65.045226 7.863316 0 4.245226-4.052261 7.782915-9.005025 7.879397-4.952764 0.080402-82.444221 7.734673-172.205025 17.029146-116.904523 12.092462-163.827136 15.244221-165.419095 11.095478z m428.269346-41.96985c-1.029146-2.379899-0.723618-114.315578 0.691458-248.747738l2.572864-244.422111 37.306533-1.511558 37.306532-1.511558V367.276382c0 128.659296 1.125628 237.025126 2.524623 240.78794 1.382915 3.762814 0.80402 9.471357-1.286432 12.671356-4.566834 6.978894-76.446231 14.954774-79.115578 8.79598z m149.821106-18.122613c-0.048241-3.730653 0-122.371859 0.096482-263.654271 0.128643-179.666332 1.897487-258.926633 5.869347-263.718593 7.798995-9.407035 88.41005-9.535678 96.192965-0.160804 3.794975 4.566834 5.772864 88.233166 6.239196 263.557789l0.675377 256.884422-12.108543 3.248241c-6.657286 1.768844-31.179899 4.904523-54.480402 6.930653-33.511558 2.926633-42.40402 2.283417-42.484422-3.087437z m324.872362-60.462311l-15.147739-30.488443 14.440201-73.696482c21.001005-107.20804 27.19196-147.650251 23.927638-156.188945-2.026131-5.258291-10.773869-7.557789-28.8-7.557789h-25.889447v-23.413065c0-12.864322 3.505528-30.198995 7.798995-38.496482 8.249246-15.951759 31.292462-30.713568 47.919598-30.713568 16.466332 0 22.41608-13.137688 28.542714-63.019096l5.853266-47.61407 55.284422-1.447236c63.646231-1.688442 58.757789-7.622111 49.061307 59.384924-5.322613 36.840201-5.145729 43.722613 1.286432 47.790955 4.132663 2.605025 47.421106 4.775879 96.192964 4.824121l88.683418 0.080402-2.669347 32.160804c-7.525628 90.966834-14.504523 150.351759-23.075377 196.82412-14.584925 79.019095-25.760804 128.225126-30.134673 132.663317-2.186935 2.219095-25.792965 6.271357-52.438191 9.005025-26.661307 2.733668-55.99196 5.98191-65.18995 7.220101-19.61809 2.653266-21.531658-4.920603-8.860302-35.216081 22.641206-54.223116 53.805025-230.01407 43.047237-242.974874-7.798995-9.407035-83.328643-9.873367-91.063317-0.562814-2.958794 3.569849-12.735678 49.302513-21.724623 101.62814-9.005025 52.325628-17.415075 96.884422-18.733668 99.055277-3.312563 5.419095 18.701508 48.369849 30.086432 58.677387 5.145729 4.663317 9.358794 12.38191 9.358794 17.20603 0 7.171859-7.075377 9.326633-39.364824 12.060301-65.350754 5.531658-61.507538 6.850251-78.39196-27.175879z m399.372864-8.619096c-5.563819-5.563819 1.977889-65.318593 9.841206-77.925628 6.914573-11.095477 10.227136-11.577889 76.912563-11.577889 38.335678 0 74.178894-2.41206 79.646231-5.322613 8.152764-4.357789 9.953769-10.934673 9.953769-36.245227 0-27.979899 1.929648-33.463317 20.164824-57.712562 29.121608-38.705528 82.749749-130.733668 82.749749-142.022111 0-5.644221-4.80804-10.934673-11.57789-12.735678-6.367839-1.704523-64.257286-3.135678-128.643216-3.18392l-117.065326-0.064322V155.175879c0-32.578894 1.817085-42.01809 9.407035-48.884422 8.426131-7.638191 30.858291-8.522613 214.110553-8.522613h204.703517l-3.537688 14.150754c-12.703518 51.248241-60.285427 146.878392-113.961809 229.161809-29.121608 44.639196-32.852261 53.226131-32.852262 75.722613 0 33.479397 5.59598 36.020101 79.019096 36.020101 56.104523 0 59.931658 0.675377 74.950754 13.314572 16.739698 14.086432 21.274372 32.996985 7.911557 32.996985-9.712563 0-408.361809 39.959799-437.451256 43.851257-11.465327 1.527638-22.38392 1.238191-24.281407-0.643216zM2302.713568 457.969849c-1.897487-3.055276-34.476382-5.145729-80.40201-5.145728h-77.234171l3.521608-11.57789c5.901508-19.441206 26.500503-43.127638 45.250251-52.0201 14.150754-6.705528 34.331658-8.442211 98.347739-8.442211h80.562814l15.340704-16.723618c16.176884-17.640201 23.316583-35.666332 17.704522-44.735679-2.186935-3.537688-40.924623-5.435176-110.986935-5.435176h-107.62613l5.354774-14.150754c2.958794-7.782915 10.420101-19.58593 16.594975-26.211055 23.155779-24.876382 32.225126-26.532663 144.771859-26.532663 117.065327 0 115.151759 0.514573 134.142713-36.213065 16.980905-32.820101 17.784925-32.643216-138.998995-28.623116l-141.185929 3.634171 5.644221-16.225126c9.567839-27.433166 36.309548-49.672362 67.071357-55.766834 15.003015-2.974874 164.518593-9.278392 332.269346-13.98995 292.631156-8.233166 305.398995-8.201005 315.17588 0.643216 14.038191 12.703518 13.314573 38.882412-1.447236 52.759799-10.934673 10.291457-19.360804 11.19196-141.18593 15.244221-144.176884 4.79196-141.121608 3.971859-158.440201 42.38794-16.852261 37.370854-22.126633 36.148744 156.719598 36.148744 152.81206 0 160.128643 0.450251 169.969849 10.291457 5.660302 5.660302 10.291457 16.080402 10.291457 23.155779 0 7.075377-4.631156 17.495477-10.291457 23.155779-9.921608 9.921608-17.157789 10.291457-197.917588 10.291457-210.39598 0-194.331658-2.894472-216.908542 39.027136-8.490452 15.758794-8.731658 18.621106-1.961809 23.236181 5.081407 3.489447 81.624121 4.566834 225.23819 3.2 169.567839-1.640201 219.497487-0.659296 226.412061 4.38995 4.872362 3.569849 7.364824 7.99196 5.531658 9.825125-3.409045 3.392965-641.768844 69.467337-671.726633 69.515578-9.037186 0.01608-17.849246-2.283417-19.60201-5.113568z" fill="#FE746F" p-id="1365"></path><path d="M73.278392 374.38392L74.613065 95.19598l243.135679-1.334673 243.135678-1.334674v131.264322c0 72.201005-0.578894 131.778894-1.286432 132.38995-0.707538 0.627136-86.962814 2.363819-191.678392 3.859296l-190.39196 2.733668-2.572864 138.564824-2.572864 138.564825-12.864322 3.409045c-7.075377 1.865327-29.668342 4.952764-50.219096 6.834171l-37.354773 3.441206z m379.947739-111.549749c24.667337-24.683417 18.476382-56.940704-13.507538-70.303518-22.142714-9.246231-207.98392-10.40402-233.680402-1.447236-23.895477 8.345729-34.090452 33.575879-23.670352 58.564824 4.164824 9.953769 12.880402 20.229146 19.376885 22.834171 6.496482 2.605025 62.343719 4.888442 124.124623 5.065327l112.305527 0.321608zM234.243216 632.747739c1.688442-2.733668 18.363819-4.968844 37.065327-4.968845 42.484422 0 40.361809 2.765829-5.210051 6.818091-21.949749 1.961809-33.784925 1.286432-31.855276-1.849246z m109.459297-44.8l-1.511558-39.927638-54.030151-1.366835c-69.837186-1.768844-69.033166-1.415075-59.288442-25.535678 12.671357-31.324623 44.076382-56.056281 81.366834-64.064322l31.951759-6.866331 1.575879-21.837186 1.59196-21.837186H437.386935v15.019095c0 29.941709 2.251256 31.292462 52.180904 31.292463 66.476382 0 91.899497 13.346734 91.899498 48.257286 0 7.107538-5.579899 19.409045-12.414071 27.352764-11.947739 13.909548-14.440201 14.504523-68.180904 16.241206-34.621106 1.093467-57.19799 4.020101-59.545729 7.718593-2.090452 3.248241-3.811055 19.055276-3.859296 35.103517l-0.080402 29.16985-34.733669 3.248241c-19.103518 1.768844-39.847236 4.309548-46.086432 5.59598-10.854271 2.251256-11.433166 0.546734-12.864321-37.563819z m311.043216-222.198995L656.080402 136.361809l37.306533-1.511558 37.306532-1.511558v452.647237l-21.869346 2.701507c-12.028141 1.479397-29.427136 3.537688-38.641206 4.566834l-16.78794 1.881407z m147.987939-31.533669c0-183.445226 1.543719-246.223116 6.174875-250.854271 8.297487-8.297487 87.413065-8.297487 95.710552 0 4.631156 4.631156 6.174874 66.363819 6.174875 246.190955v240l-54.030151 4.663316-54.030151 4.679397z m317.20201 200.201005c-7.284422-11.127638-6.737688-18.299497 6.673367-86.737688 21.19397-108.060302 27.401005-148.534673 24.120603-157.105528-2.026131-5.258291-10.773869-7.557789-28.8-7.557789h-25.889447v-23.413065c0-12.864322 3.505528-30.198995 7.798995-38.496482 8.249246-15.951759 31.292462-30.713568 47.919598-30.713568 16.466332 0 22.41608-13.137688 28.542714-63.019096l5.853266-47.61407 55.284422-1.447236c63.646231-1.688442 58.757789-7.622111 49.061307 59.384924-5.322613 36.840201-5.145729 43.722613 1.286432 47.790955 4.132663 2.605025 47.372864 4.775879 96.080402 4.824121l88.570854 0.080402-2.621106 34.733668c-5.676382 75.481407-13.298492 140.221106-22.866331 194.251256-14.359799 81.18995-18.830151 94.697487-32.241206 97.447237-14.102513 2.910553-118.737688 13.073367-119.895478 11.658291-0.466332-0.578894 5.708543-26.934673 13.716583-58.596985 19.843216-78.375879 32.546734-170.500503 24.79598-179.827136-7.782915-9.390955-83.328643-9.841206-91.047236-0.546733-2.958794 3.569849-12.735678 49.302513-21.724623 101.62814-9.005025 52.325628-17.463317 96.964824-18.81407 99.18392-1.366834 2.219095 2.251256 13.105528 8.00804 24.168844 12.462312 23.927638 13.346734 23.380905-46.472362 28.623116-37.547739 3.280402-39.766834 2.894472-47.340704-8.683417z m408.345729-44.43015c0-7.863317 3.60201-19.441206 8.00804-25.728644 7.60603-10.854271 11.529648-11.433166 77.523618-11.433165 38.239196 0 74.00201-2.41206 79.469347-5.322613 8.152764-4.357789 9.953769-10.934673 9.953769-36.245227 0-27.979899 1.929648-33.463317 20.164824-57.712562 29.121608-38.705528 82.749749-130.733668 82.749749-142.022111 0-5.644221-4.80804-10.934673-11.57789-12.735678-6.367839-1.704523-64.257286-3.135678-128.643216-3.18392l-117.065326-0.064322V155.175879c0-32.578894 1.817085-42.01809 9.407035-48.884422 8.426131-7.638191 30.858291-8.522613 214.110553-8.522613h204.703517l-3.537688 14.150754c-12.703518 51.248241-60.285427 146.878392-113.961809 229.161809-29.121608 44.639196-32.852261 53.226131-32.852262 75.722613 0 33.495477 5.563819 36.020101 79.421106 36.020101 36.245226 0 59.513568 2.01005 59.513568 5.145728 0 2.830151-3.167839 5.145729-7.059297 5.145729-3.859296 0-98.235176 9.262312-209.688442 20.582914-111.437186 11.320603-206.681407 20.582915-211.634171 20.582915-6.41608 0-9.005025-4.116583-9.005025-14.295477z m622.633166-52.695478c0-11.803015 24.635176-39.380905 42.934673-48.064321 14.150754-6.705528 34.331658-8.442211 98.347739-8.442211h80.562814l15.340704-16.723618c16.176884-17.640201 23.316583-35.666332 17.704522-44.735679-2.186935-3.537688-40.924623-5.435176-110.986935-5.435176h-107.62613l5.354774-14.150754c2.958794-7.782915 10.420101-19.58593 16.594975-26.211055 23.155779-24.876382 32.225126-26.532663 144.771859-26.532663 117.065327 0 115.151759 0.514573 134.142713-36.213065 16.980905-32.820101 17.784925-32.643216-138.998995-28.623116l-141.185929 3.634171 5.644221-16.225126c9.567839-27.433166 36.309548-49.672362 67.071357-55.766834 15.003015-2.974874 164.518593-9.278392 332.269346-13.98995 292.631156-8.233166 305.398995-8.201005 315.17588 0.643216 14.038191 12.703518 13.314573 38.882412-1.447236 52.759799-10.934673 10.291457-19.360804 11.19196-141.18593 15.244221-144.176884 4.79196-141.121608 3.971859-158.440201 42.38794-16.852261 37.370854-22.126633 36.148744 156.719598 36.148744 152.81206 0 160.128643 0.450251 169.969849 10.291457 5.660302 5.660302 10.291457 16.080402 10.291457 23.155779 0 7.075377-4.631156 17.495477-10.291457 23.155779-9.921608 9.921608-17.157789 10.291457-197.917588 10.291457-182.4 0-187.883417 0.289447-197.419095 10.532664-14.729648 15.807035-29.266332 45.121608-24.683417 49.720603 2.219095 2.251256 49.59196 5.226131 105.262311 6.641206l101.210051 2.572864-272.723619 27.401005c-149.99799 15.083417-282.564824 28.703518-294.592964 30.295477-15.919598 2.090452-21.869347 1.077387-21.869347-3.762814z" fill="#FE7C5E" p-id="1366"></path></svg>