<?xml version="1.0" encoding="UTF-8"?>
<svg width="100%" height="100%" viewBox="0 0 2045 641" version="1.1" xmlns="http://www.w3.org/2000/svg" xmlns:xlink="http://www.w3.org/1999/xlink">
    <title>剧好看</title>
    <defs>
        <linearGradient x1="16.9921875%" y1="0%" x2="67.7889657%" y2="77.3357172%" id="linearGradient-1">
            <stop stop-color="#FFE3CF" offset="0%"></stop>
            <stop stop-color="#FFC0A2" offset="100%"></stop>
        </linearGradient>
        <linearGradient x1="17.1313677%" y1="0%" x2="76.2001675%" y2="86.142936%" id="linearGradient-2">
            <stop stop-color="#FFC4CD" offset="0%"></stop>
            <stop stop-color="#FFA4B3" offset="100%"></stop>
        </linearGradient>
        <linearGradient x1="7.45228777%" y1="63.9342902%" x2="92.3858118%" y2="36.9658395%" id="linearGradient-3">
            <stop stop-color="#FF99BA" offset="0%"></stop>
            <stop stop-color="#FFC3A0" offset="100%"></stop>
        </linearGradient>
        <linearGradient x1="13.2945057%" y1="69.8906433%" x2="77.7877577%" y2="27.3849735%" id="linearGradient-4">
            <stop stop-color="#FF6294" offset="0%"></stop>
            <stop stop-color="#FF717B" offset="16.6700313%"></stop>
            <stop stop-color="#FFBE00" offset="100%"></stop>
        </linearGradient>
        <path d="M127.46027,0 L26.3406738,138.721583 C9.39444746,161.969375 1.74545282,190.709822 4.89399762,219.305645 L22.344196,377.792444 C32.0019666,465.506583 106.112451,531.905 194.356673,531.905 L633.557075,531.905 C650.927367,531.905 667.519284,524.699013 679.376588,512.005259 L751.355,434.949282 L751.355,434.949282 L127.46027,0 Z" id="path-5"></path>
        <filter x="-24.6%" y="-550.0%" width="149.3%" height="1200.0%" filterUnits="objectBoundingBox" id="filter-7">
            <feGaussianBlur stdDeviation="34.485" in="SourceGraphic"></feGaussianBlur>
        </filter>
        <linearGradient x1="13.6914754%" y1="70.9055493%" x2="88.6486255%" y2="29.8861831%" id="linearGradient-8">
            <stop stop-color="#FF99BA" offset="0%"></stop>
            <stop stop-color="#FFE4A0" offset="100%"></stop>
        </linearGradient>
        <path d="M175.442107,73.1463052 L634.715501,82.3033981 C684.511759,83.2962467 730.402719,131.546483 737.215828,190.054379 L768.056391,454.637518 C774.869501,513.029808 740.024773,560.050823 690.228515,559.683 L230.955121,556.268379 C181.158863,555.898388 135.267903,507.481539 128.454794,448.107384 L97.6142304,179.079686 C90.8011213,119.589925 125.645848,72.1534565 175.442107,73.1463052 Z" id="path-9"></path>
        <filter x="-6.7%" y="-5.1%" width="110.4%" height="114.4%" filterUnits="objectBoundingBox" id="filter-10">
            <feOffset dx="-10" dy="10" in="SourceAlpha" result="shadowOffsetOuter1"></feOffset>
            <feGaussianBlur stdDeviation="10" in="shadowOffsetOuter1" result="shadowBlurOuter1"></feGaussianBlur>
            <feColorMatrix values="0 0 0 0 1   0 0 0 0 0.258823529   0 0 0 0 0.494117647  0 0 0 0.4511309 0" type="matrix" in="shadowBlurOuter1"></feColorMatrix>
        </filter>
        <filter x="-5.9%" y="-4.0%" width="108.8%" height="112.1%" filterUnits="objectBoundingBox" id="filter-11">
            <feGaussianBlur stdDeviation="5" in="SourceAlpha" result="shadowBlurInner1"></feGaussianBlur>
            <feOffset dx="-9" dy="3" in="shadowBlurInner1" result="shadowOffsetInner1"></feOffset>
            <feComposite in="shadowOffsetInner1" in2="SourceAlpha" operator="arithmetic" k2="-1" k3="1" result="shadowInnerInner1"></feComposite>
            <feColorMatrix values="0 0 0 0 1   0 0 0 0 0.975345617   0 0 0 0 0.688776677  0 0 0 0.619427448 0" type="matrix" in="shadowInnerInner1"></feColorMatrix>
        </filter>
        <path d="M228.522761,127.691428 L598.683407,134.52861 C638.817704,135.269925 675.804448,171.296171 681.295611,214.981343 L706.152184,412.53348 C711.643347,456.132334 683.559537,491.240777 643.425239,490.96614 L273.264593,488.416599 C233.130296,488.140343 196.143552,451.989695 190.652389,407.657728 L165.795816,206.787042 C160.304653,162.368756 188.388463,126.950113 228.522761,127.691428 Z" id="path-12"></path>
        <filter x="-4.3%" y="-5.9%" width="108.7%" height="112.9%" filterUnits="objectBoundingBox" id="filter-13">
            <feOffset dx="0" dy="2" in="SourceAlpha" result="shadowOffsetOuter1"></feOffset>
            <feGaussianBlur stdDeviation="7.5" in="shadowOffsetOuter1" result="shadowBlurOuter1"></feGaussianBlur>
            <feColorMatrix values="0 0 0 0 1   0 0 0 0 0.46246189   0 0 0 0 0.537467208  0 0 0 0.356534091 0" type="matrix" in="shadowBlurOuter1"></feColorMatrix>
        </filter>
        <linearGradient x1="50%" y1="0%" x2="51.0707912%" y2="112.444054%" id="linearGradient-14">
            <stop stop-color="#FFCC69" offset="0%"></stop>
            <stop stop-color="#FF7A6E" offset="100%"></stop>
        </linearGradient>
        <linearGradient x1="50%" y1="0%" x2="62.4447678%" y2="112.444054%" id="linearGradient-15">
            <stop stop-color="#FFDF69" offset="0%"></stop>
            <stop stop-color="#FF6E85" offset="100%"></stop>
        </linearGradient>
        <linearGradient x1="58.9063928%" y1="53.3821125%" x2="56.2413354%" y2="45.4690723%" id="linearGradient-16">
            <stop stop-color="#FF6492" offset="0%"></stop>
            <stop stop-color="#FF7E5F" offset="100%"></stop>
        </linearGradient>
    </defs>
    <g id="画板" stroke="none" stroke-width="1" fill="none" fill-rule="evenodd">
        <g id="编组备份" transform="translate(0.000000, 15.000000)">
            <line x1="498.964157" y1="96.8361977" x2="436.264157" y2="18.1933992" id="路径-32备份-5" stroke="url(#linearGradient-1)" stroke-width="25.08" stroke-linecap="round" transform="translate(467.400000, 58.321399) scale(-1, 1) translate(-467.400000, -58.321399) "></line>
            <line x1="426.764157" y1="116.262798" x2="332.5" y2="0" id="路径-32备份-4" stroke="url(#linearGradient-2)" stroke-width="25.08" stroke-linecap="round"></line>
            <ellipse id="椭圆形备份-21" fill="url(#linearGradient-3)" cx="426.74" cy="92.986" rx="75.24" ry="42.636"></ellipse>
            <g id="矩形" transform="translate(0.000000, 93.200739)">
                <mask id="mask-6" fill="white">
                    <use xlink:href="#path-5"></use>
                </mask>
                <use id="蒙版" fill="url(#linearGradient-4)" xlink:href="#path-5"></use>
                <rect fill="#1B00FF" opacity="0.726841518" filter="url(#filter-7)" mask="url(#mask-6)" x="270.655" y="522.494261" width="420.09" height="18.81" rx="9.405"></rect>
            </g>
            <g id="矩形备份-19">
                <use fill="black" fill-opacity="1" filter="url(#filter-10)" xlink:href="#path-9"></use>
                <use fill="url(#linearGradient-8)" fill-rule="evenodd" xlink:href="#path-9"></use>
                <use fill="black" fill-opacity="1" filter="url(#filter-11)" xlink:href="#path-9"></use>
            </g>
            <g id="矩形备份-33">
                <use fill="black" fill-opacity="1" filter="url(#filter-13)" xlink:href="#path-12"></use>
                <use fill="#FFFFFF" fill-rule="evenodd" xlink:href="#path-12"></use>
            </g>
            <line x1="356.554" y1="229.915464" x2="369.583108" y2="329.671458" id="路径-26备份-2" stroke="url(#linearGradient-14)" stroke-width="41.8" stroke-linecap="round"></line>
            <path d="M538.744776,235.524175 L566.783671,271.691174 C571.617427,277.926172 571.064043,286.782087 565.4917,292.366832 L528.269238,329.672144 L528.269238,329.672144" id="路径-27备份-2" stroke="url(#linearGradient-15)" stroke-width="41.8" stroke-linecap="round" transform="translate(551.754173, 282.598159) scale(-1, 1) translate(-551.754173, -282.598159) "></path>
        </g>
        <path d="M1216.64286,501 C1221.7619,489.544858 1225.60119,475.989606 1228.16071,460.334245 C1230.72024,444.678884 1232,426.541575 1232,405.922319 L1232,164.6 C1232,157.641212 1226.35879,152 1219.4,152 L1191.61786,152 C1184.65907,152 1179.01786,157.641212 1179.01786,164.6 L1179.01786,405.922319 L1179.01786,405.922319 C1179.01786,426.541575 1175.75446,444.806163 1169.22768,460.716083 C1162.70089,476.626003 1154.95833,490.053975 1146,501 L1216.64286,501 Z M933.310105,501 C935.842044,489.857881 937.930894,478.905685 939.576655,468.143411 C941.222416,457.381137 942.488386,446.555556 943.374564,435.666667 C944.260743,424.777778 944.83043,413.572351 945.083624,402.050388 C945.336818,390.528424 945.463415,378.436693 945.463415,365.775194 L945.463415,273.093023 L1084.4,273.093023 C1091.35879,273.093023 1097,267.451811 1097,260.493023 L1097,158 L1097,158 L906.791638,158 C899.83285,158 894.191638,163.641212 894.191638,170.6 L894.191638,365.775194 L894.191638,365.775194 C894.191638,377.677003 893.938444,389.198966 893.432056,400.341085 C892.925668,411.483204 892.102787,422.562016 890.963415,433.577519 C889.824042,444.593023 888.304878,455.671835 886.405923,466.813953 C884.506969,477.956072 882.038328,489.351421 879,501 L933.310105,501 Z M1162,410 L1162,173 L1162,173 L1132.6,173 C1125.64121,173 1120,178.641212 1120,185.6 L1120,410 C1120,421.59798 1129.40202,431 1141,431 C1152.59798,431 1162,421.59798 1162,410 Z M1037,230 L959,230 C952.372583,230 947,224.627417 947,218 C947,211.372583 952.372583,206 959,206 L1037,206 C1043.62742,206 1049,211.372583 1049,218 C1049,224.627417 1043.62742,230 1037,230 Z M1100.94949,489.4 L1100.94949,378.558406 C1100.94949,371.599618 1095.30828,365.958406 1088.34949,365.958406 L1048.32828,365.958406 L1048.32828,365.958406 L1048.32828,344.701906 L1081.00433,344.701906 C1093.70449,344.701906 1104,334.406395 1104,321.706239 C1104,309.006083 1093.70449,298.710572 1081.00433,298.710572 L1048.32828,298.710572 L1048.32828,298.710572 L1048.32828,284.04 C1048.32828,281.256485 1046.0718,279 1043.28828,279 L1006.08545,279 C1003.30194,279 1001.04545,281.256485 1001.04545,284.04 L1001.04545,298.710572 L1001.04545,298.710572 L998.991334,298.710572 C973.591022,298.710572 953,319.301594 953,344.701906 L953,344.701906 L953,344.701906 L1001.04545,344.701906 L1001.04545,365.958406 L967.506566,365.958406 C960.547778,365.958406 954.906566,371.599618 954.906566,378.558406 L954.906566,502 L954.906566,502 L1088.34949,502 C1095.30828,502 1100.94949,496.358788 1100.94949,489.4 Z M1049.96,455 L1006.04,455 C1003.25648,455 1001,452.743515 1001,449.96 L1001,418.04 C1001,415.256485 1003.25648,413 1006.04,413 L1049.96,413 C1052.74352,413 1055,415.256485 1055,418.04 L1055,449.96 C1055,452.743515 1052.74352,455 1049.96,455 Z M1352.01562,501 C1356.18229,495.654267 1360.47917,489.990336 1364.90625,484.008206 C1369.33333,478.026076 1373.76042,471.471189 1378.1875,464.343545 C1381.57292,470.452954 1384.82812,476.562363 1387.95312,482.671772 L1397.32812,501 L1461,501 C1453.96875,486.999271 1445.89583,471.916667 1436.78125,455.752188 C1427.66667,439.58771 1418.16146,423.105033 1408.26562,406.304158 C1419.46354,379.830051 1429.03385,349.283005 1436.97656,314.66302 C1444.91927,280.043034 1449.67188,240.331875 1451.23438,195.52954 L1377.01562,195.52954 C1378.31771,186.619985 1379.55469,178.410467 1380.72656,170.900985 C1381.89844,163.391503 1382.74479,157.091174 1383.26562,152 L1328.1875,152 C1327.66667,157.091174 1326.95052,163.327863 1326.03906,170.710066 C1325.1276,178.092268 1324.02083,186.365427 1322.71875,195.52954 C1305.45985,195.52954 1291.46875,209.520642 1291.46875,226.77954 L1291.46875,243.2593 L1291.46875,243.2593 L1314.90625,243.2593 C1312.04167,260.060175 1309.11198,276.351933 1306.11719,292.134573 C1303.1224,307.917214 1300.45312,321.154267 1298.10938,331.845733 C1306.70312,345.591904 1315.10156,358.892597 1323.30469,371.747812 C1331.50781,384.603027 1339.38542,397.521882 1346.9375,410.504376 C1337.30208,428.323487 1327.27604,444.806163 1316.85938,459.952407 C1306.44271,475.098651 1296.15625,488.781182 1286,501 L1352.01562,501 Z M1571.65606,500.463956 C1573.70245,496.659889 1575.68489,492.15841 1577.60338,486.959519 C1579.52187,481.760628 1581.18456,475.483919 1582.59145,468.12939 C1583.99834,460.774861 1585.08549,452.025508 1585.85288,441.881331 C1586.62028,431.737153 1587.00398,419.817745 1587.00398,406.123105 L1587.00398,348.301294 L1627.32255,348.301294 C1641.50381,348.301294 1653,336.805108 1653,322.623845 C1653,308.442581 1641.50381,296.946396 1627.32255,296.946396 L1587.00398,296.946396 L1587.00398,296.946396 L1587.00398,280.969316 C1593.65474,272.346765 1600.11365,262.9 1606.38072,252.62902 C1612.64778,242.358041 1618.4672,231.960259 1623.83897,221.435675 C1629.21074,210.911091 1634.00696,200.386506 1638.22763,189.861922 C1642.44831,179.337338 1645.83764,169.383364 1648.39563,160 L1484.19135,160 C1475.49287,160 1468.44135,167.051515 1468.44135,175.75 L1468.44135,210.213678 L1468.44135,210.213678 L1568.58648,210.213678 C1566.54009,214.524954 1563.85421,219.47024 1560.52883,225.049538 C1557.20345,230.628835 1553.75017,236.334935 1550.16899,242.167837 C1546.58781,248.000739 1542.87873,253.643438 1539.04175,259.095933 C1535.20477,264.548429 1531.62359,269.17671 1528.29821,272.980776 L1528.29821,296.946396 L1478.9,296.946396 C1468.46182,296.946396 1460,305.408214 1460,315.846396 L1460,348.301294 L1460,348.301294 L1528.29821,348.301294 L1528.29821,406.123105 C1528.29821,419.056932 1527.59476,430.278928 1526.18787,439.789094 C1524.78098,449.299261 1522.79854,457.731608 1520.24056,465.086137 C1517.68257,472.440665 1514.54904,478.907579 1510.83996,484.486876 C1507.13088,490.066174 1502.97416,495.391867 1498.36978,500.463956 C1495.3002,503.845348 1519.72896,503.845348 1571.65606,500.463956 Z M1364.26087,351 C1361.09565,345.857143 1357.9913,340.714286 1354.94783,335.571429 C1351.90435,330.428571 1348.92174,325.542857 1346,320.914286 C1347.70435,313.457143 1349.77391,302.657143 1352.2087,288.514286 C1354.64348,274.371429 1357.2,259.2 1359.87826,243 L1388,243 C1386.29565,262.028571 1383.37391,280.542857 1379.23478,298.542857 C1375.09565,316.542857 1370.10435,334.028571 1364.26087,351 Z M2024.89868,489.4 L2024.89868,335.275824 C2024.89868,328.317036 2019.25747,322.675824 2012.29868,322.675824 L1823.88546,322.675824 L1823.88546,322.675824 C1825.68943,320.401099 1827.42896,318.126374 1829.10407,315.851648 C1830.77919,313.576923 1832.38987,311.175824 1833.93612,308.648352 L2025.47527,308.648352 C2036.25848,308.648352 2045,299.906834 2045,289.123626 C2045,278.340418 2036.25848,269.598901 2025.47527,269.598901 L1860.99559,269.598901 L1860.99559,269.598901 C1862.79956,267.324176 1864.47467,264.986264 1866.02093,262.585165 C1867.56718,260.184066 1869.11344,257.71978 1870.65969,255.192308 L2009.99783,255.192308 C2020.36228,255.192308 2028.76432,246.790267 2028.76432,236.425824 C2028.76432,226.061382 2020.36228,217.659341 2009.99783,217.659341 L1893.85352,217.659341 L1893.85352,217.659341 L1903.90419,200.598901 L1999.59364,197.460205 C2010.68426,197.096423 2019.48678,188.000436 2019.48678,176.903846 C2019.48678,166.244279 2010.8455,157.602992 2000.18593,157.602992 C1999.98804,157.602992 1999.79015,157.606036 1999.59235,157.612122 L1763.55428,164.874658 C1741.38429,165.556795 1723.76542,183.726112 1723.76542,205.906593 L1723.76542,205.906593 L1723.76542,205.906593 L1836.25551,202.494505 L1826.97797,217.659341 L1753.18054,217.659341 C1732.45166,217.659341 1715.64758,234.463422 1715.64758,255.192308 L1715.64758,255.192308 L1715.64758,255.192308 L1802.62445,255.192308 L1792.57379,269.598901 L1738.46134,269.598901 C1716.89493,269.598901 1699.41189,287.081936 1699.41189,308.648352 L1699.41189,308.648352 L1699.41189,308.648352 L1763.96806,308.648352 C1753.40198,322.296703 1742.38491,336.260989 1730.91685,350.541209 C1719.44879,364.821429 1707.14317,379.543956 1694,394.708791 L1750.43833,394.708791 L1750.43833,502 L2012.29868,502 C2019.25747,502 2024.89868,496.358788 2024.89868,489.4 Z M1945,375 L1822,375 C1818.13401,375 1815,371.865993 1815,368 C1815,364.134007 1818.13401,361 1822,361 L1945,361 C1948.86599,361 1952,364.134007 1952,368 C1952,371.865993 1948.86599,375 1945,375 Z M1945,417 L1822,417 C1818.13401,417 1815,413.865993 1815,410 C1815,406.134007 1818.13401,403 1822,403 L1945,403 C1948.86599,403 1952,406.134007 1952,410 C1952,413.865993 1948.86599,417 1945,417 Z M1945,461 L1822,461 C1818.13401,461 1815,457.865993 1815,454 C1815,450.134007 1818.13401,447 1822,447 L1945,447 C1948.86599,447 1952,450.134007 1952,454 C1952,457.865993 1948.86599,461 1945,461 Z" id="剧好看备份" stroke="#FFFFFF" stroke-width="3.15" fill="url(#linearGradient-16)" fill-rule="nonzero"></path>
    </g>
</svg>