<svg fill="#909090" t="1632905306587" class="icon" viewBox="0 0 1045 1024" version="1.1" xmlns="http://www.w3.org/2000/svg" p-id="37870" width="90" height="90"><path d="M557.824 641.194667l17.92-219.818667 1.792-78.848h-87.808l1.792 78.848 17.322667 219.818667h48.981333zM533.333333 793.514667c29.866667 0 54.357333-20.906667 54.357334-51.968S563.2 688.981333 533.333333 688.981333c-29.866667 0-54.357333 21.504-54.357333 52.565334S503.466667 793.514667 533.333333 793.514667z" p-id="37871"></path><path d="M467.989333 116.096L92.309333 795.882667A74.666667 74.666667 0 0 0 157.653333 906.666667h751.36a74.666667 74.666667 0 0 0 65.344-110.784L598.677333 116.096a74.666667 74.666667 0 0 0-130.688 0z m70.506667 26.773333a10.666667 10.666667 0 0 1 4.181333 4.181334l375.68 679.786666a10.666667 10.666667 0 0 1-9.344 15.829334H157.653333a10.666667 10.666667 0 0 1-9.322666-15.829334l375.68-679.786666a10.666667 10.666667 0 0 1 14.485333-4.181334z" p-id="37872"></path></svg>